<svg xmlns="http://www.w3.org/2000/svg" style="display:none">
  <!-- Coin -->
  <symbol id="coin" viewBox="0 0 24 24" fill="none" stroke="currentColor" stroke-width="1.5" stroke-linecap="round" stroke-linejoin="round">
    <circle cx="12" cy="12" r="9" fill="currentColor" opacity="0.08"/>
    <circle cx="12" cy="12" r="9"/>
    <path d="M9 10.5c0-1.38 1.343-2.5 3-2.5s3 1.12 3 2.5-1.343 2.5-3 2.5-3 1.12-3 2.5 1.343 2.5 3 2.5 3-1.12 3-2.5"/>
  </symbol>

  <!-- User -->
  <symbol id="user" viewBox="0 0 24 24" fill="none" stroke="currentColor" stroke-width="1.5" stroke-linecap="round" stroke-linejoin="round">
    <path d="M20 21a8 8 0 1 0-16 0"/>
    <circle cx="12" cy="7" r="4"/>
  </symbol>

  <!-- Academic cap -->
  <symbol id="cap" viewBox="0 0 24 24" fill="none" stroke="currentColor" stroke-width="1.5" stroke-linecap="round" stroke-linejoin="round">
    <path d="M3 8l9-4 9 4-9 4-9-4z"/>
    <path d="M7 10v4a5 5 0 0 0 10 0v-4"/>
    <path d="M21 8v6"/>
  </symbol>

  <!-- Briefcase -->
  <symbol id="briefcase" viewBox="0 0 24 24" fill="none" stroke="currentColor" stroke-width="1.5" stroke-linecap="round" stroke-linejoin="round">
    <rect x="3" y="7" width="18" height="13" rx="2"/>
    <path d="M9 7V5a2 2 0 0 1 2-2h2a2 2 0 0 1 2 2v2"/>
    <path d="M3 12h18"/>
  </symbol>

  <!-- Home -->
  <symbol id="home" viewBox="0 0 24 24" fill="none" stroke="currentColor" stroke-width="1.5" stroke-linecap="round" stroke-linejoin="round">
    <path d="M3 11l9-8 9 8"/>
    <path d="M5 10v10a2 2 0 0 0 2 2h10a2 2 0 0 0 2-2V10"/>
  </symbol>

  <!-- Login -->
  <symbol id="login" viewBox="0 0 24 24" fill="none" stroke="currentColor" stroke-width="1.5" stroke-linecap="round" stroke-linejoin="round">
    <path d="M15 3h4a2 2 0 0 1 2 2v14a2 2 0 0 1-2 2h-4"/>
    <path d="M10 17l5-5-5-5"/>
    <path d="M15 12H3"/>
  </symbol>

  <!-- Logout -->
  <symbol id="logout" viewBox="0 0 24 24" fill="none" stroke="currentColor" stroke-width="1.5" stroke-linecap="round" stroke-linejoin="round">
    <path d="M9 3H5a2 2 0 0 0-2 2v14a2 2 0 0 0 2 2h4"/>
    <path d="M14 17l5-5-5-5"/>
    <path d="M19 12H7"/>
  </symbol>

  <!-- Edit (pencil) -->
  <symbol id="edit" viewBox="0 0 24 24" fill="none" stroke="currentColor" stroke-width="1.5" stroke-linecap="round" stroke-linejoin="round">
    <path d="M12 20h9"/>
    <path d="M16.5 3.5a2.121 2.121 0 0 1 3 3L7 19l-4 1 1-4L16.5 3.5z"/>
  </symbol>

  <!-- Save -->
  <symbol id="save" viewBox="0 0 24 24" fill="none" stroke="currentColor" stroke-width="1.5" stroke-linecap="round" stroke-linejoin="round">
    <path d="M19 21H5a2 2 0 0 1-2-2V5a2 2 0 0 1 2-2h11l5 5v11a2 2 0 0 1-2 2z"/>
    <path d="M17 21v-8H7v8"/>
    <path d="M7 3v5h8"/>
  </symbol>

  <!-- Cancel (X) -->
  <symbol id="x" viewBox="0 0 24 24" fill="none" stroke="currentColor" stroke-width="1.5" stroke-linecap="round" stroke-linejoin="round">
    <path d="M18 6L6 18M6 6l12 12"/>
  </symbol>

  <!-- Chart bars -->
  <symbol id="chart" viewBox="0 0 24 24" fill="none" stroke="currentColor" stroke-width="1.5" stroke-linecap="round" stroke-linejoin="round">
    <path d="M3 21h18"/>
    <rect x="5" y="10" width="3" height="7" rx="1"/>
    <rect x="10.5" y="6" width="3" height="11" rx="1"/>
    <rect x="16" y="12" width="3" height="5" rx="1"/>
  </symbol>

  <!-- Wallet -->
  <symbol id="wallet" viewBox="0 0 24 24" fill="none" stroke="currentColor" stroke-width="1.5" stroke-linecap="round" stroke-linejoin="round">
    <rect x="3" y="6" width="18" height="14" rx="3"/>
    <path d="M18 12h3v4h-3a2 2 0 0 1-2-2v0a2 2 0 0 1 2-2z"/>
    <path d="M15 6V5a2 2 0 0 0-2-2H6a3 3 0 0 0-3 3v0"/>
  </symbol>

  <!-- Exchange -->
  <symbol id="exchange" viewBox="0 0 24 24" fill="none" stroke="currentColor" stroke-width="1.5" stroke-linecap="round" stroke-linejoin="round">
    <path d="M7 10H21l-3-3"/>
    <path d="M17 14H3l3 3"/>
  </symbol>
</svg>

